<?xml version="1.0" standalone="no"?>
<!DOCTYPE svg PUBLIC "-//W3C//DTD SVG 20010904//EN"
 "http://www.w3.org/TR/2001/REC-SVG-20010904/DTD/svg10.dtd">
<svg version="1.0" xmlns="http://www.w3.org/2000/svg"
 width="700.000000pt" height="700.000000pt" viewBox="0 0 700.000000 700.000000"
 preserveAspectRatio="xMidYMid meet">
<metadata>
Created by potrace 1.14, written by Peter Selinger 2001-2017
</metadata>
<g transform="translate(0.000000,700.000000) scale(0.100000,-0.100000)"
fill="#000000" stroke="none">
<path d="M3476 6988 c3 -5 -6 -18 -20 -29 -13 -11 -28 -28 -31 -39 -4 -11 -11
-18 -16 -15 -5 4 -9 1 -9 -5 0 -6 -5 -8 -12 -4 -8 5 -9 2 -4 -12 4 -10 4 -16
1 -12 -10 9 -55 -33 -55 -51 0 -14 -1 -14 -10 -1 -9 13 -10 13 -10 0 0 -9 -9
-22 -20 -30 -11 -8 -20 -20 -20 -27 0 -6 -5 -15 -12 -19 -7 -4 -8 -3 -4 4 4 7
2 12 -3 12 -6 0 -11 -7 -11 -15 0 -8 -4 -15 -10 -15 -5 0 -10 -7 -10 -15 0 -8
-3 -14 -7 -12 -12 3 -52 -40 -45 -48 4 -3 -2 -3 -12 1 -14 5 -17 4 -12 -4 4
-7 2 -12 -4 -12 -6 0 -8 -5 -4 -12 5 -8 2 -9 -10 -5 -9 4 -15 3 -12 -2 3 -5
-1 -12 -10 -15 -8 -3 -12 -10 -9 -16 3 -5 -1 -10 -9 -10 -9 0 -16 -4 -16 -10
0 -5 -6 -10 -14 -10 -7 0 -20 -7 -27 -17 -13 -15 -12 -15 11 -4 24 11 24 11 6
-3 -11 -9 -24 -16 -29 -16 -4 0 -5 -4 -2 -10 3 -5 0 -10 -8 -10 -8 0 -17 -7
-21 -15 -3 -8 -13 -15 -23 -15 -15 0 -16 -2 -3 -10 11 -7 12 -10 2 -10 -18 0
-43 -26 -34 -34 3 -4 -2 -4 -12 0 -14 5 -17 4 -12 -4 4 -7 2 -12 -4 -12 -6 0
-8 -5 -4 -12 5 -8 2 -9 -10 -5 -9 4 -15 3 -13 -1 7 -10 -19 -32 -29 -24 -4 4
-4 -1 0 -12 5 -14 2 -17 -9 -12 -9 3 -13 2 -10 -4 3 -6 1 -10 -5 -10 -6 0 -8
-4 -5 -10 6 -10 -9 -15 -30 -10 -5 1 -7 -1 -3 -5 3 -3 -9 -21 -27 -40 -19 -18
-31 -36 -27 -40 3 -3 -2 -3 -12 1 -14 5 -17 4 -12 -4 4 -7 2 -12 -4 -12 -6 0
-8 -4 -5 -10 3 -5 1 -10 -4 -10 -15 0 -51 -37 -43 -44 3 -3 -1 -6 -9 -6 -8 0
-21 -9 -29 -20 -8 -11 -21 -20 -30 -20 -13 0 -13 -1 0 -10 12 -8 10 -10 -8
-10 -13 0 -21 -3 -19 -7 5 -11 -30 -43 -38 -35 -3 4 -3 -2 1 -11 4 -11 2 -17
-4 -15 -6 2 -18 -6 -27 -17 -9 -11 -13 -14 -9 -6 5 10 3 12 -7 5 -21 -13 -281
-13 -298 0 -9 7 -12 7 -9 1 8 -13 -211 -14 -231 -1 -9 6 -12 5 -8 -1 4 -6 -6
-10 -23 -11 -16 0 -32 4 -36 9 -4 6 -10 7 -17 0 -14 -11 -126 -10 -144 2 -6 4
-14 3 -17 -2 -7 -11 -217 -9 -235 3 -9 6 -12 5 -8 0 7 -12 -213 -12 -232 0 -9
6 -12 5 -8 -1 4 -5 -29 -9 -84 -8 -68 0 -89 -3 -89 -13 0 -7 -5 -10 -12 -6 -8
5 -8 3 -2 -7 12 -19 12 -239 0 -232 -5 4 -6 1 0 -8 12 -19 12 -239 0 -232 -5
4 -6 1 0 -8 12 -19 12 -239 0 -232 -5 4 -6 1 0 -8 12 -18 14 -228 3 -235 -5
-3 -6 -11 -2 -17 12 -18 13 -130 2 -144 -7 -7 -6 -13 0 -17 5 -4 9 -20 9 -36
-1 -17 -5 -27 -11 -23 -6 4 -7 1 -1 -8 14 -22 12 -230 -3 -225 -7 3 -10 -1 -6
-10 3 -7 0 -14 -6 -14 -6 0 -11 -7 -11 -16 0 -14 -3 -14 -15 -4 -13 11 -14 10
-10 -3 4 -9 -2 -21 -14 -29 -12 -8 -18 -18 -14 -21 3 -4 -1 -7 -9 -7 -9 0 -19
-7 -22 -16 -4 -10 -12 -14 -22 -10 -14 5 -15 4 -4 -9 9 -11 9 -15 1 -15 -17 0
-42 -26 -33 -34 3 -4 -2 -4 -12 0 -14 5 -17 4 -12 -4 4 -7 2 -12 -4 -12 -6 0
-8 -4 -5 -10 3 -5 1 -10 -6 -10 -6 0 -18 -8 -26 -17 -8 -10 -11 -12 -7 -4 5
10 3 12 -5 7 -7 -5 -10 -14 -7 -21 4 -12 -27 -29 -47 -26 -5 1 -6 -3 -2 -9 3
-6 11 -7 17 -4 7 5 8 2 4 -5 -5 -7 -15 -10 -23 -7 -8 3 -11 1 -8 -4 3 -6 1
-10 -5 -10 -6 0 -8 -4 -5 -10 3 -5 1 -10 -4 -10 -15 0 -51 -37 -44 -44 4 -3 0
-6 -7 -6 -15 0 -60 -46 -60 -61 0 -6 -4 -7 -10 -4 -5 3 -10 2 -10 -2 0 -5 -7
-18 -16 -29 -14 -18 -15 -18 -4 6 l11 25 -20 -25 c-11 -14 -21 -31 -21 -39 0
-11 -3 -11 -17 0 -13 11 -15 11 -9 1 5 -9 1 -19 -13 -28 -12 -8 -21 -23 -21
-32 0 -15 -2 -15 -10 -2 -9 13 -10 13 -10 0 0 -9 -9 -22 -20 -30 -11 -8 -20
-21 -20 -29 0 -8 -3 -12 -6 -8 -7 7 -44 -29 -44 -45 0 -6 -3 -8 -7 -5 -3 4
-12 -1 -20 -11 -8 -9 -11 -11 -7 -3 5 9 3 12 -4 7 -7 -4 -12 -17 -12 -29 0
-18 -2 -19 -10 -7 -9 13 -10 13 -10 0 0 -9 -9 -22 -20 -30 -11 -8 -20 -20 -20
-27 0 -6 -5 -15 -12 -19 -7 -4 -8 -3 -4 4 4 7 2 12 -3 12 -6 0 -11 -7 -11 -15
0 -8 -4 -15 -10 -15 -5 0 -10 -7 -10 -17 0 -9 -3 -13 -7 -9 -4 3 -13 -4 -21
-16 -8 -14 -11 -16 -8 -5 3 11 2 15 -4 12 -6 -3 -10 -13 -10 -21 0 -8 -7 -17
-15 -20 -8 -4 -15 -13 -15 -21 0 -8 -4 -11 -10 -8 -5 3 -10 2 -10 -2 0 -5 -7
-18 -16 -29 -14 -18 -15 -18 -4 6 11 24 10 24 -4 6 -9 -11 -16 -24 -16 -29 0
-4 -4 -5 -10 -2 -6 4 -7 -1 -3 -12 6 -15 4 -16 -8 -6 -12 10 -14 8 -14 -13 1
-13 5 -27 10 -31 4 -5 5 -1 1 7 -4 8 2 4 14 -10 12 -14 18 -19 14 -11 -4 9 -3
12 4 7 6 -4 8 -14 5 -23 -4 -10 -2 -14 4 -10 6 4 13 0 17 -8 3 -8 13 -15 23
-15 14 0 15 -2 5 -9 -10 -6 -9 -10 7 -14 12 -3 21 -13 21 -24 0 -15 2 -16 10
-3 9 13 10 13 10 -1 0 -8 14 -25 30 -37 17 -13 30 -30 30 -40 0 -15 2 -15 10
-2 8 13 10 12 10 -2 0 -10 5 -18 10 -18 6 0 10 -8 10 -17 0 -15 2 -16 10 -3 8
13 10 12 10 -3 0 -10 5 -15 10 -12 6 3 10 -3 10 -15 0 -12 4 -18 10 -15 5 3
10 1 10 -5 0 -6 4 -8 10 -5 5 3 10 -3 10 -13 0 -11 9 -22 20 -25 11 -3 20 -13
20 -24 0 -15 2 -16 10 -3 8 13 10 12 10 -2 0 -10 5 -18 10 -18 6 0 10 -8 10
-17 0 -15 2 -16 10 -3 9 13 10 13 10 0 0 -8 10 -26 21 -40 11 -14 17 -18 13
-10 -7 13 -5 13 9 1 9 -7 17 -21 17 -30 0 -14 2 -14 10 -1 7 11 10 12 10 2 0
-16 57 -72 74 -72 7 0 6 -3 -2 -9 -10 -6 -9 -10 7 -14 12 -3 21 -13 21 -24 0
-15 2 -16 10 -3 8 13 10 12 10 -2 0 -10 5 -18 10 -18 6 0 10 -8 10 -17 0 -15
2 -16 10 -3 8 13 10 13 10 -2 0 -9 5 -20 12 -24 7 -5 8 -3 3 6 -5 8 -4 11 3 6
6 -4 9 -13 5 -21 -3 -9 1 -15 9 -15 8 0 20 -10 27 -22 6 -13 9 -15 6 -5 -3 10
-1 15 5 12 6 -3 10 -13 10 -21 0 -8 5 -14 10 -14 6 0 10 -8 10 -17 0 -15 2
-16 10 -3 8 13 10 12 10 -3 0 -10 5 -15 10 -12 6 3 10 -3 10 -13 0 -11 9 -22
20 -25 11 -3 20 -13 20 -24 0 -15 2 -16 10 -3 8 13 10 12 10 -2 0 -10 5 -18
10 -18 6 0 10 -8 10 -17 0 -15 2 -16 10 -3 8 13 10 13 10 -2 0 -9 5 -20 12
-24 7 -5 8 -3 3 6 -5 8 -4 11 3 6 6 -4 9 -13 5 -21 -3 -10 2 -15 17 -15 11 0
19 -4 16 -8 -3 -5 6 -16 20 -26 13 -11 24 -25 24 -32 0 -8 4 -14 9 -14 13 0
10 -94 -3 -102 -7 -5 -7 -8 -1 -8 13 0 14 -189 1 -209 -6 -9 -5 -12 1 -8 7 4
10 -12 10 -43 0 -31 -3 -47 -10 -43 -6 4 -7 1 -1 -8 12 -19 13 -179 0 -172 -5
4 -6 1 0 -8 12 -19 12 -239 0 -232 -5 4 -6 1 0 -8 12 -19 12 -239 0 -232 -5 4
-6 1 0 -8 12 -19 14 -221 2 -236 -5 -7 -5 -14 1 -17 5 -4 9 -29 7 -56 -3 -43
-1 -50 15 -50 11 0 19 -6 19 -12 0 -9 4 -8 10 2 8 13 13 13 31 2 11 -8 18 -9
15 -4 -4 7 23 9 74 7 57 -2 78 0 73 9 -5 8 -3 8 8 0 8 -5 55 -9 107 -9 60 1
92 -2 92 -9 0 -8 3 -8 8 -1 10 15 304 15 314 1 6 -8 8 -8 8 0 0 14 222 14 232
0 5 -8 8 -7 8 1 0 14 142 13 152 -2 5 -7 8 -6 8 2 0 8 28 10 95 8 67 -1 93 1
88 9 -5 8 -3 8 8 0 8 -6 29 -10 47 -8 17 1 32 -2 32 -7 0 -5 6 -9 14 -9 7 0
23 -13 36 -30 13 -16 30 -30 39 -31 12 0 12 -2 3 -6 -10 -4 -7 -9 9 -17 13 -6
29 -22 35 -35 8 -16 13 -19 17 -9 4 9 6 7 6 -4 1 -10 6 -18 11 -18 6 0 10 -8
10 -17 0 -15 2 -16 10 -3 8 13 10 12 10 -3 0 -10 5 -15 10 -12 6 3 10 -3 10
-14 0 -13 7 -21 16 -21 9 0 18 -9 21 -21 4 -16 8 -17 14 -7 7 10 9 9 9 -4 0
-9 5 -20 12 -24 7 -5 8 -3 3 6 -5 8 -4 11 3 6 6 -4 9 -13 6 -20 -3 -8 0 -17 7
-22 8 -4 10 -3 5 4 -4 7 -5 12 -2 12 3 0 13 -12 21 -27 9 -16 14 -20 11 -10
-3 11 -2 15 4 12 6 -3 10 -13 10 -21 0 -8 5 -14 10 -14 6 0 10 -8 10 -17 0
-14 2 -15 9 -5 6 10 10 9 14 -7 3 -12 13 -21 22 -21 9 0 13 -4 10 -10 -3 -5 2
-10 12 -10 15 0 16 -2 3 -10 -13 -8 -12 -10 3 -10 11 0 21 -9 24 -20 3 -11 11
-20 18 -20 7 0 19 -8 26 -17 12 -14 12 -16 -1 -9 -8 4 -4 -2 10 -13 14 -11 32
-21 40 -21 13 0 13 -1 0 -10 -13 -8 -13 -10 1 -10 9 0 23 -8 30 -17 12 -14 12
-16 -1 -9 -8 4 -4 -2 10 -13 14 -11 32 -21 40 -21 13 0 13 -1 0 -10 -13 -8
-12 -10 3 -10 9 0 17 -4 17 -10 0 -5 8 -10 18 -10 13 0 14 -2 4 -9 -10 -6 -8
-10 8 -14 13 -3 19 -10 15 -17 -4 -7 2 -14 14 -17 12 -3 21 -9 21 -14 0 -5 8
-9 18 -9 13 0 14 -2 4 -9 -10 -6 -8 -10 8 -14 12 -3 19 -10 16 -16 -4 -6 7
-17 24 -26 16 -8 30 -18 30 -21 0 -3 -5 -2 -12 2 -7 5 -8 3 -4 -5 5 -7 14 -10
22 -7 7 3 16 0 20 -6 5 -7 2 -8 -6 -3 -9 5 -11 4 -6 -3 4 -7 15 -12 24 -12 15
0 15 -2 2 -10 -13 -8 -12 -10 3 -10 11 0 21 -9 24 -20 3 -11 9 -18 13 -15 4 3
10 -2 14 -10 3 -8 13 -15 23 -15 15 0 16 -2 3 -10 -12 -8 -12 -10 -1 -10 7 0
23 -10 35 -23 12 -12 29 -21 40 -19 15 3 16 6 5 13 -12 7 -12 9 0 9 15 0 61
46 61 61 0 6 5 7 10 4 6 -3 10 -1 10 5 0 6 5 8 12 4 8 -5 9 -2 5 10 -4 10 -3
15 3 11 6 -3 10 -1 10 5 0 6 4 8 10 5 6 -3 7 1 4 10 -4 9 -3 15 2 13 12 -3 73
59 66 67 -4 3 2 3 13 -1 11 -4 16 -3 12 1 -4 5 3 15 15 23 14 8 16 11 5 8 -11
-3 -15 -2 -12 4 3 6 11 10 16 10 15 0 39 27 31 34 -3 4 2 4 12 0 12 -5 17 -4
13 3 -3 5 5 16 18 23 13 7 22 17 19 22 -3 4 0 8 6 8 6 0 8 4 5 10 -3 5 -1 10
4 10 16 0 91 77 83 85 -4 3 2 3 13 -1 11 -4 17 -3 13 1 -5 5 1 15 13 23 12 8
18 20 14 29 -5 14 -3 14 12 2 15 -12 16 -12 10 4 -4 11 -3 16 3 12 6 -3 10 -1
10 5 0 6 5 8 12 4 8 -5 9 -2 5 10 -4 10 -3 15 3 11 6 -3 10 -1 10 4 0 6 7 11
16 11 8 0 12 4 9 10 -3 5 -1 10 5 10 6 0 8 5 5 10 -3 6 0 10 8 10 8 0 17 7 21
15 3 8 13 15 23 15 15 0 16 2 3 10 -11 7 -11 10 -2 10 14 0 72 54 91 85 10 16
11 16 7 2 -3 -11 -2 -15 4 -12 6 3 10 13 10 21 0 8 7 17 15 20 8 4 15 13 15
21 0 8 5 11 10 8 6 -3 10 -1 10 5 0 6 5 8 10 5 6 -3 10 1 10 9 0 9 5 16 11 16
5 0 7 4 4 10 -4 6 1 7 11 3 12 -4 15 -3 10 6 -5 8 0 14 13 18 18 5 19 8 9 21
-10 13 -10 14 0 8 13 -8 45 18 34 28 -3 4 2 4 12 0 13 -5 17 -4 13 3 -4 6 0
14 8 17 9 3 20 17 25 31 7 18 14 23 26 18 11 -4 15 -2 11 4 -4 7 13 9 48 7 40
-1 53 1 48 9 -5 9 -3 9 8 2 8 -6 55 -10 104 -10 55 1 93 -3 97 -9 6 -8 8 -8 8
0 0 8 42 11 134 9 85 -1 133 2 129 8 -4 6 -1 7 6 2 22 -13 162 -14 154 -1 -5
8 -3 8 8 1 8 -6 55 -10 104 -10 55 1 93 -3 97 -9 6 -8 8 -8 8 0 0 8 42 11 134
9 85 -1 133 2 129 8 -4 6 -1 7 6 2 20 -12 162 -14 154 -2 -4 6 -1 7 8 2 20
-13 53 -14 60 -2 4 5 5 27 3 48 -3 26 0 39 9 39 8 0 8 3 1 8 -14 10 -14 232 0
232 8 0 8 2 0 8 -14 10 -14 304 1 314 7 5 7 8 -1 8 -14 0 -14 222 0 232 8 5 8
8 0 8 -14 0 -15 143 0 152 8 6 8 8 0 8 -7 0 -11 16 -10 38 1 20 -1 49 -5 65
-4 15 -4 25 -1 23 4 -2 7 60 7 139 -1 111 2 142 11 134 8 -7 14 -7 19 1 3 5 3
10 -2 10 -4 0 0 5 10 11 9 6 14 15 11 21 -4 7 -2 8 4 4 6 -3 16 3 22 14 6 11
18 20 28 20 15 0 15 2 2 10 -12 8 -12 10 -1 10 7 0 30 18 51 39 21 22 42 36
46 33 4 -4 4 1 1 11 -4 10 -3 16 1 14 9 -5 101 91 93 98 -3 3 3 3 14 -1 11 -4
16 -3 12 1 -4 5 3 15 15 23 14 8 16 11 5 8 -11 -3 -15 -2 -12 4 3 6 11 10 16
10 15 0 39 27 31 34 -3 4 2 4 12 0 12 -5 17 -4 13 3 -3 5 5 16 18 23 13 7 22
17 19 22 -3 4 0 8 6 8 6 0 8 5 5 10 -3 6 -1 10 4 10 16 0 91 77 83 85 -4 3 2
3 12 -1 14 -5 17 -4 12 4 -4 7 -2 12 4 12 6 0 8 5 5 10 -4 6 -1 9 7 8 7 -2 12
5 12 15 -2 14 1 15 12 6 11 -9 14 -8 14 2 0 8 8 23 17 34 13 17 15 17 9 2 -3
-11 -2 -16 4 -12 6 3 10 13 10 21 0 8 7 14 16 14 8 0 12 5 9 10 -3 5 -1 10 5
10 6 0 8 5 5 10 -3 6 0 10 8 10 8 0 17 7 21 15 3 8 13 15 23 15 15 0 16 2 3
10 -11 7 -11 10 -2 10 14 0 72 54 91 85 10 16 11 16 7 2 -3 -11 -2 -15 4 -12
6 3 10 13 10 21 0 8 7 17 15 20 8 4 15 13 15 21 0 8 5 11 10 8 6 -3 10 -1 10
5 0 6 5 8 10 5 6 -3 10 1 10 9 0 9 5 16 11 16 5 0 7 4 4 10 -4 6 1 7 11 3 12
-4 15 -3 10 6 -5 8 0 14 13 18 18 5 19 8 9 21 -10 13 -10 14 0 8 7 -4 19 0 28
9 13 12 14 19 4 30 -7 8 -20 15 -29 15 -14 0 -14 2 -1 10 13 8 12 10 -2 10
-10 0 -18 5 -18 10 0 6 -8 10 -17 10 -14 0 -15 2 -5 9 10 6 9 10 -7 14 -12 3
-21 12 -21 21 0 9 -8 16 -21 16 -11 0 -17 5 -14 10 3 6 -2 10 -12 10 -15 0
-16 2 -3 10 13 8 12 10 -2 10 -10 0 -18 5 -18 10 0 6 -6 10 -14 10 -8 0 -18 4
-21 10 -3 6 1 7 12 4 10 -3 6 2 -9 11 -16 8 -28 18 -28 21 0 3 5 2 12 -2 7 -5
8 -3 4 5 -5 7 -14 10 -22 7 -7 -3 -16 0 -20 6 -5 7 -2 8 6 3 9 -5 11 -4 6 3
-4 7 -15 12 -24 12 -15 0 -15 2 -2 10 13 8 12 10 -2 10 -10 0 -18 5 -18 10 0
6 -8 10 -17 10 -14 0 -15 2 -5 9 10 6 9 10 -7 14 -12 3 -21 13 -21 24 0 15 -2
16 -10 3 -8 -13 -10 -12 -10 3 0 10 -7 20 -15 23 -8 4 -12 11 -8 17 4 6 0 8
-10 4 -9 -3 -19 -1 -23 5 -5 7 -2 8 6 3 9 -5 11 -4 6 3 -4 7 -15 12 -24 12
-15 0 -15 2 -2 10 13 8 13 10 -1 10 -9 0 -23 8 -30 17 -12 14 -12 16 1 9 8 -4
4 2 -10 13 -14 11 -32 21 -40 21 -13 0 -13 1 0 10 13 8 12 10 -2 10 -10 0 -18
5 -18 10 0 6 -8 10 -17 10 -14 0 -15 2 -5 9 10 6 9 10 -7 14 -12 3 -21 12 -21
21 0 9 -8 16 -21 16 -11 0 -17 5 -14 10 3 6 1 10 -5 10 -6 0 -9 4 -6 9 4 5 -7
15 -23 22 -20 9 -26 16 -18 21 8 5 6 8 -5 8 -10 0 -18 5 -18 10 0 6 -8 10 -17
10 -15 0 -16 2 -3 10 13 9 13 10 0 10 -8 0 -26 14 -40 30 -14 17 -32 30 -40
30 -12 0 -12 2 -2 9 10 6 9 10 -7 14 -12 3 -21 13 -21 24 0 15 -2 16 -10 3 -8
-13 -10 -12 -10 3 0 10 -7 20 -15 23 -8 4 -12 11 -8 17 4 6 0 8 -10 4 -9 -3
-19 -1 -23 5 -5 7 -2 8 6 3 9 -5 11 -4 6 3 -4 7 -15 12 -24 13 -12 0 -13 2 -4
6 10 4 7 9 -9 17 -13 6 -29 22 -35 35 -8 16 -13 19 -17 9 -4 -9 -6 -7 -6 5 -1
9 -5 17 -11 17 -5 0 -10 7 -10 16 0 8 -4 13 -8 10 -5 -3 -9 8 -10 25 0 19 3
27 10 23 7 -5 8 -2 2 7 -14 23 -15 52 -2 61 8 5 9 8 2 8 -7 0 -11 16 -10 38 1
20 -1 49 -5 65 -4 15 -4 25 0 23 4 -3 7 56 6 130 -2 92 1 134 9 134 8 0 8 2 0
8 -6 4 -10 42 -9 97 0 50 -4 96 -10 104 -7 11 -7 13 1 8 8 -5 10 21 9 88 -2
67 0 95 8 95 8 0 9 3 2 8 -15 10 -16 145 -1 154 7 5 7 8 1 8 -15 0 -16 150 -1
150 7 0 8 3 1 8 -15 10 -16 152 -2 152 8 0 7 3 -1 9 -8 4 -13 11 -13 15 4 30
-1 32 -91 30 -56 -1 -99 3 -107 10 -11 8 -13 8 -8 0 4 -7 -5 -11 -23 -12 -16
0 -32 4 -36 9 -4 6 -10 7 -17 0 -14 -11 -126 -10 -144 2 -6 4 -14 3 -17 -2 -7
-11 -217 -9 -235 3 -9 6 -12 5 -8 0 7 -12 -213 -12 -232 0 -9 6 -12 5 -8 0 7
-12 -213 -12 -232 0 -9 6 -12 5 -8 -1 4 -6 -6 -10 -23 -11 -16 0 -32 4 -36 9
-4 6 -10 7 -17 0 -10 -7 -142 -9 -142 -1 0 1 -8 3 -18 5 -9 2 -15 0 -12 -5 2
-4 -7 -7 -21 -7 -13 0 -23 2 -20 4 7 7 -20 33 -33 33 -5 0 -13 4 -16 10 -4 6
1 7 12 4 15 -6 15 -4 -2 9 -11 9 -27 17 -35 17 -12 0 -12 2 -2 9 10 6 8 10 -8
14 -12 3 -19 10 -15 16 3 6 -5 15 -19 21 -14 5 -26 17 -26 26 0 10 -5 14 -15
11 -8 -4 -17 -1 -21 5 -5 7 -2 8 6 3 9 -5 11 -4 6 3 -4 7 -15 12 -24 12 -13 0
-14 2 -4 9 10 6 9 10 -7 14 -12 3 -21 13 -21 22 0 9 -4 14 -9 11 -5 -3 -11 1
-15 9 -3 8 -13 15 -23 15 -15 0 -16 2 -3 10 13 8 12 10 -2 10 -10 0 -18 5 -18
10 0 6 -8 10 -17 11 -12 0 -14 2 -5 6 10 4 7 9 -9 17 -13 6 -29 22 -35 35 -8
16 -13 19 -17 9 -4 -8 -6 -7 -6 5 -1 10 -5 15 -11 12 -5 -3 -10 3 -10 14 0 12
-7 21 -15 21 -8 0 -15 5 -15 10 0 6 -8 10 -17 10 -14 0 -15 2 -5 9 10 6 9 10
-7 14 -12 3 -21 13 -21 24 0 15 -2 16 -10 3 -9 -13 -10 -13 -10 0 0 8 -10 26
-21 40 -11 14 -17 18 -13 10 7 -13 5 -13 -9 -1 -9 7 -17 21 -17 30 0 14 -2 14
-10 1 -8 -13 -10 -12 -10 3 0 9 -4 17 -10 17 -5 0 -10 8 -10 18 0 14 -2 15
-10 2 -8 -13 -10 -13 -10 2 0 9 -5 20 -12 24 -7 5 -8 3 -3 -6 5 -8 4 -11 -3
-6 -6 4 -9 13 -6 20 3 8 -4 16 -15 19 -12 3 -21 13 -21 24 0 15 -2 16 -10 3
-8 -13 -10 -13 -10 2 0 9 -5 20 -12 24 -7 5 -8 3 -3 -6 5 -8 4 -11 -3 -6 -6 4
-9 13 -6 20 3 8 0 17 -7 22 -8 4 -10 3 -5 -4 4 -7 5 -12 2 -12 -3 0 -13 14
-21 30 -9 17 -20 28 -26 24 -6 -3 -13 4 -16 16 -4 16 -8 18 -14 8 -7 -11 -9
-11 -9 0 0 16 -106 122 -114 114 -3 -3 -6 3 -6 12 0 13 -5 16 -16 12 -15 -6
-15 -4 -3 11 8 9 9 14 3 10 -7 -4 -15 0 -18 9 -3 9 -13 14 -21 10 -8 -3 -17 0
-21 6 -4 6 -3 8 4 4 6 -3 13 -3 16 2 2 4 -6 8 -19 8 -13 0 -21 -4 -19 -8z
m268 -234 c3 -8 2 -12 -4 -9 -6 3 -10 10 -10 16 0 14 7 11 14 -7z m-1128
-1053 c-8 -12 20 -22 41 -14 10 4 14 2 10 -4 -8 -12 20 -26 34 -17 5 3 9 0 9
-5 0 -6 7 -11 15 -11 8 0 15 -6 16 -12 0 -9 2 -9 6 1 4 10 7 10 13 2 4 -7 17
-13 29 -14 12 -1 19 -6 17 -13 -3 -8 3 -10 16 -6 16 4 19 2 13 -9 -8 -12 -6
-12 8 0 14 11 18 11 23 -3 4 -10 13 -15 20 -12 8 3 14 1 14 -4 0 -6 9 -10 20
-10 11 0 20 -5 20 -11 0 -6 6 -9 14 -6 8 3 17 -1 20 -10 4 -9 9 -13 13 -10 3
4 13 1 21 -6 9 -6 13 -7 9 -1 -3 6 0 11 7 11 8 0 12 -6 9 -12 -2 -7 3 -15 12
-19 11 -4 14 -2 9 7 -6 8 -3 8 9 -1 9 -8 22 -10 28 -6 8 4 9 3 5 -4 -6 -11 6
-16 27 -13 4 0 7 -4 7 -10 0 -5 5 -7 10 -4 6 3 10 2 10 -4 0 -5 9 -8 20 -6 13
3 18 0 14 -7 -5 -7 -1 -9 9 -5 10 4 17 2 17 -4 0 -6 7 -8 16 -5 8 3 12 2 9 -4
-6 -9 8 -14 28 -11 4 0 7 -3 7 -7 0 -5 6 -9 13 -10 27 -2 46 -8 60 -20 8 -7
19 -12 23 -11 13 3 64 -23 64 -32 0 -5 7 -5 17 -2 12 5 14 3 8 -7 -5 -8 -3
-11 6 -8 8 3 21 -1 30 -9 14 -12 19 -12 33 2 9 9 16 13 16 9 0 -3 7 -1 15 6
10 8 15 9 15 2 0 -6 11 -1 25 12 25 23 58 31 49 12 -3 -6 1 -3 10 8 9 10 20
15 27 10 9 -5 10 -2 5 11 -5 15 -4 16 8 6 10 -9 16 -9 21 -1 4 6 13 9 21 6 8
-3 17 1 20 9 4 8 17 15 30 15 13 0 24 5 24 11 0 5 4 8 9 5 5 -3 12 1 15 10 5
13 9 14 20 5 10 -9 15 -8 20 4 3 8 10 15 16 15 6 0 8 -6 5 -12 -4 -7 0 -5 9 6
8 10 19 15 25 11 6 -3 11 -1 11 4 0 6 9 11 21 11 11 0 17 4 14 10 -3 5 0 7 8
4 8 -3 18 0 22 5 3 6 11 9 16 6 5 -4 9 -2 9 4 0 5 9 8 21 6 17 -3 19 0 14 18
-4 12 -3 17 2 12 10 -13 48 -13 60 -1 5 6 2 6 -7 1 -9 -5 -12 -5 -7 1 5 5 12
9 15 9 4 0 13 4 21 9 10 7 12 6 6 -3 -6 -10 -3 -11 13 -2 12 6 24 16 28 22 4
8 9 7 15 -2 7 -11 9 -10 9 4 0 16 15 21 51 18 8 -1 23 7 33 18 10 11 24 17 32
14 8 -3 14 0 14 7 0 7 8 9 20 5 14 -5 18 -3 15 8 -4 8 0 14 10 14 8 0 15 -5
15 -11 0 -6 5 -4 10 4 8 12 10 11 10 -7 0 -13 4 -23 9 -23 6 0 8 -9 6 -20 -2
-11 1 -19 8 -17 6 1 12 -8 13 -20 3 -42 4 -44 14 -38 6 4 10 3 9 -2 -4 -21 2
-44 10 -39 4 3 7 -6 5 -20 -2 -20 1 -24 13 -20 13 5 14 4 3 -9 -9 -11 -9 -15
-1 -15 7 0 9 -4 6 -10 -3 -5 -1 -10 6 -10 8 0 8 -4 -1 -15 -11 -13 -10 -14 4
-9 12 5 16 0 16 -20 0 -14 6 -26 13 -26 9 0 9 -2 -1 -9 -11 -7 -11 -9 2 -14 9
-4 13 -13 10 -21 -3 -8 0 -17 7 -22 8 -5 10 -3 4 6 -5 8 -4 11 2 7 5 -3 8 -19
7 -36 -2 -24 1 -28 15 -23 14 5 14 3 3 -10 -11 -14 -10 -18 5 -27 10 -6 14
-11 9 -11 -5 0 -3 -7 4 -15 7 -8 10 -15 6 -15 -4 0 1 -11 10 -25 8 -13 13 -29
9 -35 -3 -5 0 -13 9 -16 9 -3 12 -12 9 -21 -5 -12 -3 -14 8 -8 11 7 11 5 -1
-10 -12 -15 -12 -17 -1 -10 11 6 13 4 8 -8 -4 -11 -2 -14 7 -11 9 3 12 -4 11
-26 -1 -17 3 -30 10 -30 6 0 12 -7 13 -15 1 -8 3 -22 4 -30 1 -8 6 -15 11 -15
5 0 7 -9 4 -21 -4 -15 -2 -19 9 -15 7 3 13 2 13 -2 -5 -30 3 -62 13 -56 8 5 9
2 5 -9 -3 -10 -2 -17 4 -17 6 0 7 -5 3 -12 -4 -6 -3 -8 4 -4 6 3 17 -1 25 -9
12 -11 17 -12 20 -2 3 6 6 3 6 -8 1 -17 3 -17 11 -5 6 9 10 10 10 3 0 -10 30
-26 52 -28 3 0 10 -3 14 -7 4 -5 16 -8 26 -8 11 0 17 -4 13 -9 -3 -6 4 -8 15
-6 11 2 20 -1 20 -7 0 -5 6 -8 14 -5 16 6 40 -16 29 -27 -4 -4 0 -4 9 -1 9 4
19 1 23 -4 3 -6 11 -9 16 -5 5 3 16 0 24 -6 8 -7 22 -10 30 -6 9 3 13 2 10 -4
-3 -5 7 -12 22 -16 15 -4 37 -14 48 -24 11 -10 28 -16 37 -15 10 2 20 -1 24
-6 3 -5 14 -14 26 -20 16 -9 19 -8 13 3 -3 7 1 4 9 -6 12 -15 16 -16 16 -5 0
11 2 11 9 1 4 -7 17 -14 29 -15 11 0 18 -5 16 -9 -5 -8 0 -10 29 -12 6 -1 18
-6 25 -13 7 -7 20 -9 29 -6 10 4 14 2 10 -4 -8 -12 20 -26 34 -17 5 3 9 0 9
-6 0 -6 5 -8 10 -5 6 3 10 2 10 -4 0 -6 7 -7 17 -4 12 5 14 3 8 -7 -6 -10 -4
-12 8 -7 9 3 19 2 22 -4 4 -5 11 -7 16 -4 5 4 9 1 9 -4 0 -6 7 -11 16 -11 8 0
22 -7 30 -15 14 -13 14 -15 0 -15 -10 0 -13 -6 -9 -17 4 -11 3 -14 -5 -9 -8 5
-10 2 -6 -8 4 -10 1 -16 -7 -16 -12 0 -12 -2 -1 -9 11 -6 10 -10 -4 -15 -16
-6 -16 -8 -4 -16 13 -8 12 -10 -2 -10 -11 0 -15 -5 -12 -15 4 -8 1 -15 -6 -15
-6 0 -8 -4 -5 -10 3 -5 2 -10 -3 -10 -6 0 -9 -8 -8 -17 0 -10 -5 -17 -12 -15
-10 2 -10 -2 -1 -19 6 -12 7 -19 1 -15 -10 6 -27 -21 -23 -38 1 -4 -3 -14 -10
-22 -6 -7 -8 -18 -4 -24 3 -5 -1 -13 -10 -16 -9 -4 -14 -12 -11 -20 3 -7 0
-14 -6 -16 -6 -2 -13 -15 -15 -28 -2 -13 -7 -27 -11 -30 -4 -3 -8 -16 -10 -30
-2 -14 -10 -30 -18 -36 -7 -6 -10 -14 -6 -18 4 -4 -2 -14 -12 -22 -13 -9 -15
-14 -6 -14 9 0 8 -5 -6 -16 -10 -8 -13 -13 -7 -9 9 4 11 1 7 -9 -3 -9 -11 -13
-16 -10 -6 4 -8 -2 -3 -15 4 -12 2 -21 -4 -21 -6 0 -11 -9 -11 -20 0 -11 -4
-20 -10 -20 -5 0 -10 -9 -10 -19 0 -11 -5 -23 -11 -27 -8 -4 -7 -9 2 -15 12
-7 11 -9 -1 -10 -8 -1 -19 -1 -24 0 -5 1 -4 -5 4 -13 11 -15 7 -20 -13 -17 -5
1 -6 -3 -2 -8 9 -16 -6 -62 -18 -54 -6 4 -8 0 -4 -10 3 -9 -1 -23 -9 -32 -9
-8 -12 -15 -7 -15 4 0 1 -5 -7 -10 -12 -8 -12 -10 5 -11 11 0 14 -3 7 -6 -10
-4 -10 -8 -1 -19 7 -8 9 -17 6 -20 -3 -4 1 -13 9 -21 8 -9 13 -20 11 -27 -2
-6 3 -16 10 -21 8 -6 16 -23 17 -39 2 -16 7 -31 12 -35 5 -3 11 -15 12 -26 2
-11 8 -25 14 -32 5 -7 7 -16 4 -21 -3 -5 4 -21 15 -36 11 -14 17 -30 14 -36
-3 -5 -1 -10 4 -10 6 0 11 -9 11 -20 0 -11 6 -20 13 -20 9 0 9 -2 -1 -9 -11
-7 -11 -9 2 -14 9 -4 13 -14 11 -27 -2 -11 0 -18 6 -15 8 5 10 -4 9 -30 -1 -3
6 -12 14 -20 8 -9 13 -24 11 -35 -2 -11 1 -19 8 -17 6 1 11 -7 11 -18 0 -11 6
-23 13 -28 7 -4 10 -14 7 -22 -4 -8 -1 -15 5 -15 6 0 11 -8 11 -18 0 -10 6
-24 13 -31 10 -11 9 -12 -3 -6 -13 8 -13 6 -1 -8 7 -9 17 -15 20 -12 4 2 8 -2
8 -10 0 -8 -4 -12 -9 -9 -4 3 -3 -6 4 -20 6 -14 14 -26 18 -26 4 0 8 -12 8
-27 0 -15 5 -29 11 -31 6 -2 11 -15 11 -28 0 -13 5 -24 11 -24 8 0 8 -4 0 -14
-9 -11 -9 -15 1 -20 7 -3 3 -3 -9 0 -14 3 -23 1 -23 -6 0 -6 -8 -10 -17 -8
-10 2 -17 -2 -16 -9 2 -7 -4 -10 -13 -6 -9 3 -19 1 -23 -5 -4 -6 -18 -13 -31
-14 -14 -2 -31 -10 -38 -18 -8 -8 -11 -10 -8 -3 5 8 0 8 -18 0 -13 -7 -23 -14
-21 -17 2 -3 -4 -6 -13 -7 -44 -3 -60 -8 -56 -15 3 -4 -2 -8 -11 -8 -10 0 -13
-5 -9 -12 5 -9 2 -9 -9 1 -12 9 -17 10 -17 2 0 -7 -4 -9 -10 -6 -5 3 -10 1
-10 -4 0 -6 -5 -11 -11 -11 -5 0 -7 5 -3 12 5 7 3 8 -5 4 -7 -5 -10 -14 -7
-22 5 -12 2 -12 -15 -3 -17 9 -20 8 -14 -2 6 -9 2 -11 -13 -7 -12 4 -20 2 -16
-3 3 -5 -4 -9 -15 -9 -12 0 -21 -5 -21 -11 0 -5 -4 -7 -10 -4 -5 3 -10 1 -10
-4 0 -6 -5 -11 -11 -11 -5 0 -7 6 -4 13 4 6 0 4 -8 -5 -8 -10 -17 -15 -20 -11
-4 3 -7 1 -7 -6 0 -7 -4 -10 -10 -6 -10 6 -50 -13 -62 -30 -5 -6 -8 -4 -8 5 0
13 -2 13 -9 1 -5 -8 -15 -16 -23 -17 -7 -2 -22 -5 -32 -7 -11 -2 -22 -9 -24
-15 -2 -7 -8 -10 -13 -6 -5 3 -9 1 -9 -4 0 -6 -10 -8 -22 -4 -14 3 -19 1 -14
-6 5 -8 2 -10 -8 -6 -9 3 -16 1 -16 -5 0 -6 -3 -10 -7 -10 -5 1 -11 0 -15 -1
-13 -4 -27 -7 -39 -9 -5 0 -8 -5 -5 -10 3 -4 -6 -7 -19 -5 -14 1 -23 -2 -19
-7 3 -5 0 -9 -6 -9 -6 0 -8 -4 -5 -10 3 -5 2 -10 -4 -10 -6 0 -7 -7 -4 -17 4
-10 2 -14 -4 -10 -7 4 -14 -5 -18 -23 -4 -16 -12 -30 -18 -30 -7 0 -6 -4 3
-10 11 -7 11 -10 2 -10 -7 0 -10 -4 -7 -10 3 -5 -2 -10 -12 -11 -11 0 -13 -3
-5 -6 10 -4 9 -9 -5 -20 -10 -8 -11 -11 -3 -7 12 7 13 5 3 -8 -7 -8 -10 -18
-6 -21 3 -4 1 -7 -5 -7 -7 0 -12 -9 -12 -21 0 -13 -4 -18 -12 -13 -8 5 -7 0 2
-11 9 -11 10 -16 3 -11 -12 6 -18 -5 -14 -26 0 -5 -4 -8 -10 -8 -5 0 -8 -4 -4
-9 3 -5 0 -13 -6 -16 -5 -4 -8 -14 -5 -22 4 -9 2 -11 -6 -7 -8 5 -9 2 -5 -10
4 -10 3 -15 -3 -11 -6 3 -10 -2 -10 -13 0 -10 -3 -22 -7 -26 -8 -7 -9 -11 -12
-37 0 -5 -5 -8 -10 -5 -5 4 -7 -3 -4 -14 3 -12 0 -20 -6 -20 -7 0 -9 -4 -6
-10 3 -5 2 -10 -4 -10 -5 0 -8 -11 -6 -25 2 -20 -1 -23 -11 -15 -9 9 -12 5
-10 -14 2 -15 -1 -26 -6 -26 -5 0 -6 -4 -3 -10 3 -5 1 -10 -5 -10 -6 0 -9 -4
-6 -9 4 -5 2 -11 -3 -13 -6 -1 -12 -16 -15 -33 -3 -16 -10 -31 -16 -33 -5 -2
-8 -8 -4 -13 3 -5 1 -9 -3 -9 -5 0 -9 -10 -10 -22 -1 -11 -7 -24 -13 -28 -7
-4 -11 -10 -11 -14 3 -20 -1 -49 -6 -38 -7 18 -19 14 -19 -7 0 -11 4 -17 9
-14 5 3 2 -6 -7 -19 -9 -14 -13 -28 -9 -32 5 -4 -6 -4 -22 -1 -17 4 -34 8 -40
9 -5 0 -16 7 -24 14 -7 7 -20 11 -28 8 -8 -3 -11 -1 -8 4 3 6 -1 10 -9 10 -9
0 -16 5 -16 11 0 8 -6 7 -17 -2 -11 -10 -14 -10 -9 -1 4 7 1 12 -8 12 -9 0
-16 6 -16 13 0 8 -4 7 -10 -3 -8 -13 -10 -12 -10 3 0 9 -5 17 -11 17 -5 0 -7
-4 -4 -10 10 -16 0 -12 -25 10 -12 11 -27 17 -31 14 -5 -3 -9 -1 -9 5 0 6 -6
8 -14 5 -7 -3 -21 2 -30 11 -9 9 -20 13 -26 10 -5 -3 -10 2 -10 12 0 15 -2 16
-10 3 -7 -11 -10 -11 -10 -2 0 7 -4 11 -9 8 -4 -3 -19 3 -31 14 -26 23 -34 25
-24 8 5 -9 2 -9 -9 1 -9 7 -17 10 -17 5 0 -4 -7 1 -15 12 -9 12 -14 14 -15 6
0 -7 -5 -10 -10 -7 -6 4 -7 12 -3 18 4 7 -1 6 -11 -2 -15 -12 -17 -12 -14 0 2
8 -3 13 -11 11 -7 -2 -25 7 -39 20 -14 13 -22 17 -18 11 4 -7 3 -13 -3 -13 -5
0 -11 4 -13 9 -1 5 -10 11 -18 13 -8 2 -18 6 -21 10 -3 5 -17 9 -32 10 -15 1
-29 9 -32 16 -3 10 -13 12 -30 8 -18 -5 -24 -3 -23 6 2 7 -4 13 -12 13 -8 0
-18 4 -21 8 -4 5 -18 10 -32 10 -14 1 -23 6 -19 11 3 5 -5 7 -16 4 -12 -4 -20
-2 -17 2 3 5 1 11 -5 15 -5 3 -10 -2 -11 -12 0 -16 -1 -16 -9 2 -8 18 -9 18
-9 2 -1 -10 -5 -15 -11 -12 -5 3 -10 2 -10 -2 0 -5 -10 -9 -22 -10 -11 -1 -24
-7 -28 -14 -5 -6 -13 -8 -20 -4 -8 5 -11 4 -7 -2 4 -6 -2 -13 -13 -16 -12 -3
-17 -1 -14 5 3 5 -3 4 -15 -4 -12 -7 -21 -16 -21 -20 0 -3 -8 -5 -17 -4 -10 2
-24 -4 -31 -13 -10 -12 -12 -12 -6 -1 7 12 5 13 -8 3 -8 -7 -18 -10 -21 -6 -4
3 -7 1 -7 -6 0 -7 -4 -9 -10 -6 -5 3 -10 1 -10 -4 0 -6 -9 -11 -21 -11 -13 0
-18 -4 -13 -12 5 -10 4 -10 -6 -1 -11 10 -17 8 -31 -8 -10 -11 -20 -20 -23
-20 -26 3 -56 0 -55 -6 3 -20 -2 -26 -11 -13 -6 9 -10 11 -10 3 0 -7 -7 -10
-15 -7 -8 4 -15 1 -15 -6 0 -6 -4 -8 -10 -5 -5 3 -10 1 -10 -4 0 -6 -5 -11
-11 -11 -5 0 -7 5 -3 12 5 7 3 8 -5 4 -7 -5 -10 -14 -8 -20 3 -7 -1 -13 -9
-13 -7 0 -10 5 -7 11 4 6 -4 2 -17 -9 -15 -13 -21 -15 -16 -5 6 12 5 12 -6 -1
-7 -9 -18 -14 -25 -12 -6 2 -14 -1 -18 -6 -3 -6 -15 -11 -26 -11 -10 0 -19 -5
-19 -12 0 -6 -3 -9 -6 -5 -4 3 -13 -1 -22 -9 -11 -11 -17 -12 -22 -4 -6 9 -9
9 -14 1 -4 -6 -12 -9 -17 -5 -5 3 -8 0 -7 -8 2 -8 -6 -13 -19 -12 -13 1 -23
-4 -23 -12 0 -8 -6 -11 -15 -8 -8 4 -15 1 -15 -6 0 -10 -3 -10 -14 -1 -11 9
-15 9 -18 0 -2 -7 -12 -13 -22 -15 -10 -1 -15 0 -12 3 3 3 -2 12 -12 20 -9 8
-12 12 -5 9 8 -4 7 3 -2 22 -8 15 -16 38 -18 50 -2 12 -9 28 -15 34 -7 7 -12
18 -12 25 0 7 -4 13 -8 13 -5 0 -8 13 -7 29 1 22 -2 28 -13 23 -12 -4 -14 0
-9 17 4 15 2 21 -7 18 -7 -3 -13 7 -14 27 -2 17 -7 33 -12 34 -6 2 -10 8 -10
13 0 6 6 7 13 4 6 -4 5 -1 -4 7 -9 7 -14 19 -11 27 3 8 0 11 -7 7 -11 -7 -15
4 -12 36 1 10 -4 18 -13 18 -9 0 -16 5 -16 11 0 5 6 7 13 3 6 -4 2 4 -11 18
-16 18 -20 28 -12 33 8 5 6 12 -7 22 -11 9 -12 12 -3 8 8 -4 4 2 -9 13 -16 13
-20 21 -12 26 6 4 9 12 5 17 -3 5 -9 7 -14 4 -4 -3 -6 5 -2 17 3 12 1 19 -4
15 -6 -3 -11 5 -12 17 -2 26 -27 78 -33 71 -3 -2 -6 5 -7 15 -1 11 -3 29 -4
39 -1 11 -6 17 -10 15 -4 -3 -8 4 -8 15 0 12 -6 21 -12 21 -9 0 -8 4 2 10 11
7 11 10 2 10 -7 0 -10 5 -7 10 3 5 -1 10 -9 10 -9 0 -16 5 -16 11 0 5 5 7 11
3 6 -3 3 5 -6 20 -10 14 -24 26 -31 26 -8 0 -14 5 -14 10 0 6 -13 10 -29 10
-15 0 -41 10 -57 22 -16 13 -25 16 -20 8 6 -12 5 -12 -6 0 -7 9 -24 17 -37 17
-13 1 -27 7 -31 14 -5 6 -13 8 -20 4 -8 -5 -11 -4 -7 2 4 7 -7 13 -28 17 -19
4 -41 14 -50 22 -8 8 -19 12 -25 9 -5 -3 -10 -2 -10 3 0 6 -7 13 -16 16 -9 3
-12 2 -9 -4 4 -6 -14 1 -38 14 -24 14 -47 22 -51 19 -3 -4 -6 -1 -6 6 0 7 -7
11 -15 8 -8 -4 -17 -1 -21 5 -5 7 -2 8 6 3 8 -5 11 -4 6 3 -4 6 -13 9 -21 5
-9 -3 -15 1 -15 8 0 11 -3 11 -10 -1 -8 -13 -10 -12 -10 4 0 11 -3 16 -7 13
-3 -4 -17 0 -30 8 -17 12 -23 12 -23 3 0 -9 -3 -8 -10 2 -5 8 -18 15 -29 15
-10 0 -28 8 -39 18 -12 11 -26 16 -31 12 -6 -3 -11 -1 -11 5 0 6 -4 8 -10 5
-5 -3 -10 -1 -10 5 0 6 -5 8 -10 5 -6 -3 -13 1 -16 10 -5 13 -9 14 -14 4 -6
-9 -12 -9 -24 3 -8 9 -13 18 -11 22 3 3 0 2 -7 -4 -8 -6 -16 -4 -25 8 -8 9
-11 11 -7 3 5 -11 3 -11 -12 -3 -23 13 -25 42 -4 59 11 9 12 12 2 13 -7 0 -10
5 -7 10 4 6 11 8 16 4 6 -3 10 0 8 7 -4 33 2 49 19 49 13 0 14 2 4 9 -11 7
-11 11 0 22 8 8 15 19 16 24 10 52 33 105 43 99 5 -3 6 2 3 10 -4 10 -1 16 7
16 7 0 9 3 6 7 -4 3 -2 12 4 20 9 9 8 13 0 13 -7 0 -3 10 8 22 11 11 18 25 15
29 -7 13 21 50 31 41 5 -4 5 -1 1 6 -4 7 -3 18 2 25 5 7 8 20 7 30 -2 10 1 14
8 10 7 -4 8 0 4 11 -4 9 -3 15 2 12 8 -5 26 40 23 57 -1 4 3 7 9 7 5 0 8 4 4
9 -3 5 -1 12 5 16 6 4 8 11 5 16 -4 5 -1 9 5 9 7 0 9 7 6 16 -4 10 -2 13 6 8
7 -5 9 0 6 14 -4 13 0 23 9 26 8 3 12 10 9 15 -4 5 4 22 17 38 13 15 23 38 22
50 -1 12 4 24 11 27 7 3 10 14 7 26 -4 13 1 26 13 36 11 9 14 13 8 10 -7 -3
-15 1 -18 10 -4 9 -2 13 5 8 6 -3 4 5 -5 18 -9 14 -13 28 -9 31 3 4 1 7 -6 7
-7 0 -9 5 -6 10 3 6 0 10 -7 10 -9 0 -9 3 2 10 13 9 13 10 0 11 -8 1 -19 1
-23 0 -5 -1 -4 6 1 16 10 17 -5 66 -17 58 -4 -2 -8 6 -8 17 -1 12 -6 24 -11
27 -5 3 -8 14 -6 24 1 9 -2 17 -6 17 -5 0 -11 14 -15 30 -4 17 -10 28 -13 26
-4 -2 -8 8 -9 22 0 15 -6 28 -12 30 -6 2 -11 8 -11 13 0 6 6 7 13 4 6 -4 3 2
-8 12 -19 17 -24 32 -28 75 -1 9 -5 14 -9 12 -4 -3 -8 4 -8 15 0 12 -5 21 -11
21 -5 0 -8 4 -4 9 3 5 1 12 -4 16 -6 3 -7 13 -4 22 4 11 3 14 -5 9 -8 -5 -12
1 -12 18 0 14 -5 26 -10 26 -6 0 -9 3 -9 8 3 20 -2 32 -12 26 -7 -4 -7 1 1 16
10 18 9 21 -1 15 -9 -6 -11 -3 -6 9 4 9 3 15 -2 12 -5 -3 -12 6 -16 22 -3 15
-14 36 -23 46 -9 11 -11 16 -4 12 6 -4 12 -2 12 3 0 6 -5 11 -11 11 -5 0 -7 5
-4 10 3 6 1 10 -4 10 -6 0 -11 8 -11 18 0 10 -3 22 -7 26 -16 16 -9 35 16 45
36 13 75 24 79 22 2 -1 10 6 19 16 8 10 11 11 7 3 -5 -10 1 -8 16 5 13 11 21
15 17 9 -3 -6 0 -11 8 -11 8 0 12 4 9 9 -3 4 0 8 6 8 6 0 8 4 5 10 -3 6 1 7
10 4 8 -4 22 -1 30 6 8 7 15 9 15 6 0 -4 7 0 16 8 8 9 26 16 40 16 13 0 24 6
24 13 0 8 4 7 10 -3 8 -13 10 -13 10 2 0 12 5 15 16 11 9 -3 19 -1 23 6 4 7
18 13 29 14 12 1 22 5 22 9 0 4 9 8 20 8 11 0 20 4 20 10 0 5 7 6 17 3 11 -4
14 -3 9 6 -6 8 -2 11 10 9 11 -2 18 2 17 10 -4 16 2 15 21 -4 15 -14 16 -14
16 4 0 15 5 19 19 15 10 -2 26 4 36 14 10 10 20 17 22 16 8 -7 24 -2 19 6 -3
5 0 9 7 8 40 -1 58 4 51 15 -5 8 -2 9 9 5 10 -3 17 -2 17 4 0 6 5 7 11 3 6 -3
14 -2 18 5 4 6 19 12 33 13 15 1 24 6 22 10 -5 8 0 10 29 12 6 1 15 6 19 11 4
6 13 10 20 10 7 0 14 10 16 23 2 12 7 22 11 22 4 0 16 25 26 55 11 30 22 55
26 55 4 0 6 11 5 25 -2 13 2 23 8 22 6 -1 11 8 11 20 0 12 5 26 9 30 5 5 6 2
1 -6 -5 -10 -4 -12 4 -7 6 4 9 12 5 17 -3 6 2 20 13 31 10 12 12 18 6 14 -22
-13 -14 9 8 22 15 10 18 17 11 24 -8 8 -6 15 4 25 8 8 12 18 9 23 -3 4 2 11
10 14 10 3 14 14 11 30 -3 18 -1 23 9 20 9 -4 13 2 11 20 -2 14 0 26 4 26 11
0 30 57 22 66 -4 4 -2 4 5 0 7 -4 13 3 15 21 2 16 8 27 13 26 6 -1 12 7 13 18
4 43 6 49 15 49 5 0 7 6 4 13 -2 6 3 18 12 25 13 11 13 12 1 6 -10 -5 -8 1 5
16 13 15 15 21 5 16 -12 -6 -12 -5 1 6 9 7 15 23 14 35 -1 13 1 21 3 18 3 -3
11 7 19 22 7 14 11 28 9 30 -2 3 3 13 12 24 17 20 27 26 18 10z m1679 -61 c-3
-5 -12 -10 -18 -10 -7 0 -6 4 3 10 19 12 23 12 15 0z m-785 -310 c0 -5 -2 -10
-4 -10 -3 0 -8 5 -11 10 -3 6 -1 10 4 10 6 0 11 -4 11 -10z m-1870 -1934 c0
-3 -4 -8 -10 -11 -5 -3 -10 -1 -10 4 0 6 5 11 10 11 6 0 10 -2 10 -4z m885
-1955 c3 -5 2 -12 -3 -15 -5 -3 -9 1 -9 9 0 17 3 19 12 6z m770 -1221 c3 -6
-1 -7 -9 -4 -18 7 -21 14 -7 14 6 0 13 -4 16 -10z"/>
<path d="M1586 4532 c-3 -5 1 -9 9 -9 8 0 12 4 9 9 -3 4 -7 8 -9 8 -2 0 -6 -4
-9 -8z"/>
<path d="M3465 4472 c-237 -42 -269 -363 -46 -452 39 -16 124 -16 165 0 159
60 200 279 73 393 -50 45 -131 70 -192 59z"/>
<path d="M2518 3657 c-150 -39 -171 -250 -32 -317 l45 -22 973 0 c1046 1 994
-2 1053 50 93 80 54 248 -67 287 -33 11 -1930 12 -1972 2z"/>
<path d="M3429 2983 c-207 -61 -216 -361 -13 -442 158 -63 334 72 316 243 -15
148 -157 242 -303 199z"/>
</g>
</svg>
